# File created by Blade
# Date/Time:  Tue Jan 27 19:14:14 2015
#---------------------------------------------------------
:version 1.10
:name HOM
:units
  mass 1.0
  length 1.000000
  angle deg
:documentation
     Acclaim Skeleton File
:root
   axis xyz
   order TX TY TZ RX RY RZ
   position 0.000000 0.000000 0.000000
   orientation 0 0 0
:bonedata
   begin
      id 1
      name Spine_dum
      direction 0.000000 1.000000 0.000000
      length 6.116652
      axis 0.0 0.0 0.0 xyz
   end
   begin
      id 2
      name LeftUpLeg_dum
      direction 1.000000 0.000000 0.000000
      length 4.711765
      axis 0.0 0.0 0.0 xyz
   end
   begin
      id 3
      name RightUpLeg_dum
      direction -1.000000 0.000000 0.000000
      length 4.711765
      axis 0.0 0.0 0.0 xyz
   end
   begin
      id 4
      name Spine
      direction 0.000000 1.000000 0.000000
      length 0.000000
      axis 0.0 0.0 0.0 xyz
      dof rx ry rz
   end
   begin
      id 5
      name Spine_dum1
      direction 0.000000 1.000000 0.000000
      length 15.225563
      axis 0.0 0.0 0.0 xyz
   end
   begin
      id 6
      name Spine_dum2
      direction 0.000000 1.000000 0.000000
      length 8.977654
      axis 0.0 0.0 0.0 xyz
   end
   begin
      id 7
      name Spine_dum3
      direction 0.000000 1.000000 0.000000
      length 8.977654
      axis 0.0 0.0 0.0 xyz
   end
   begin
      id 8
      name Head
      direction 0.000000 1.000000 0.000000
      length 4.527550
      axis 0.0 0.0 0.0 xyz
      dof rx ry rz
   end
   begin
      id 9
      name LeftShoulder
      direction 1.000000 0.000000 0.000000
      length 7.110130
      axis 0.0 0.0 -90.0 xyz
      dof rx ry rz
   end
   begin
      id 10
      name LeftArm
      direction 1.000000 0.000000 0.000000
      length 10.398341
      axis 0.0 0.0 -90.0 xyz
      dof rx ry rz
   end
   begin
      id 11
      name LeftForeArm
      direction 1.000000 0.000000 0.000000
      length 8.888997
      axis 0.0 0.0 -90.0 xyz
      dof ry rz rx
   end
   begin
      id 12
      name LeftHand
      direction 0.000000 0.000000 0.000000
      length 0.000000
      axis 0.0 0.0 -90.0 xyz
      dof rx ry rz
   end
   begin
      id 13
      name LeftHand_dum1
      direction 0.000000 0.000000 0.000000
      length 0.000000
      axis 0.0 0.0 -90.0 xyz
   end
   begin
      id 14
      name LeftHand_dum2
      direction 1.000000 0.000000 0.000000
      length 3.937000
      axis 0.0 0.0 -90.0 xyz
   end
   begin
      id 15
      name LeftHandThumb1
      direction 0.000000 0.000000 1.000000
      length 3.937000
      axis 0.0 0.0 -90.0 xyz
      dof rx rz ry
   end
   begin
      id 16
      name RightShoulder
      direction -1.000000 0.000000 0.000000
      length 7.110130
      axis 0.0 0.0 90.0 xyz
      dof rx ry rz
   end
   begin
      id 17
      name RightArm
      direction -1.000000 0.000000 0.000000
      length 10.398341
      axis 0.0 0.0 90.0 xyz
      dof rx ry rz
   end
   begin
      id 18
      name RightForeArm
      direction -1.000000 0.000000 0.000000
      length 8.888997
      axis 0.0 0.0 90.0 xyz
      dof ry rz rx
   end
   begin
      id 19
      name RightHand
      direction 0.000000 0.000000 0.000000
      length 0.000000
      axis 0.0 0.0 90.0 xyz
      dof rx ry rz
   end
   begin
      id 20
      name RightHand_dum1
      direction 0.000000 0.000000 0.000000
      length 0.000000
      axis 0.0 0.0 90.0 xyz
   end
   begin
      id 21
      name RightHand_dum2
      direction -1.000000 0.000000 0.000000
      length 3.937000
      axis 0.0 0.0 90.0 xyz
   end
   begin
      id 22
      name RightHandThumb1
      direction 0.000000 0.000000 1.000000
      length 3.937000
      axis 0.0 0.0 90.0 xyz
      dof rx rz ry
   end
   begin
      id 23
      name LeftUpLeg
      direction 0.000000 -1.000000 0.000000
      length 15.510451
      axis 0.0 0.0 0.0 xyz
      dof rx ry rz
   end
   begin
      id 24
      name LeftLeg
      direction 0.000000 -1.000000 0.000000
      length 14.858061
      axis 0.0 0.0 0.0 xyz
      dof rx ry rz
   end
   begin
      id 25
      name LeftFoot
      direction 0.000000 -0.258819 0.965926
      length 5.128852
      axis 15.0 0.0 0.0 xyz
      dof rx ry rz
   end
   begin
      id 26
      name LeftToeBase
      direction 0.000000 0.000000 1.000000
      length 2.952750
      axis 0.0 0.0 0.0 xyz
      dof rx ry rz
   end
   begin
      id 27
      name RightUpLeg
      direction 0.000000 -1.000000 0.000000
      length 15.510451
      axis 0.0 0.0 0.0 xyz
      dof rx ry rz
   end
   begin
      id 28
      name RightLeg
      direction 0.000000 -1.000000 0.000000
      length 14.858061
      axis 0.0 0.0 0.0 xyz
      dof rx ry rz
   end
   begin
      id 29
      name RightFoot
      direction 0.000000 -0.258819 0.965926
      length 5.128852
      axis 15.0 0.0 0.0 xyz
      dof rx ry rz
   end
   begin
      id 30
      name RightToeBase
      direction 0.000000 0.000000 1.000000
      length 2.952750
      axis 0.0 0.0 0.0 xyz
      dof rx ry rz
   end
:hierarchy
   begin
      root Spine_dum LeftUpLeg_dum RightUpLeg_dum
      Spine_dum Spine
      LeftUpLeg_dum LeftUpLeg
      RightUpLeg_dum RightUpLeg
      Spine Spine_dum1 Spine_dum2 Spine_dum3
      Spine_dum1 Head
      Spine_dum2 LeftShoulder
      Spine_dum3 RightShoulder
      LeftShoulder LeftArm
      LeftArm LeftForeArm
      LeftForeArm LeftHand
      LeftHand LeftHand_dum1 LeftHand_dum2
      LeftHand_dum1 LeftHandThumb1
      RightShoulder RightArm
      RightArm RightForeArm
      RightForeArm RightHand
      RightHand RightHand_dum1 RightHand_dum2
      RightHand_dum1 RightHandThumb1
      LeftUpLeg LeftLeg
      LeftLeg LeftFoot
      LeftFoot LeftToeBase
      RightUpLeg RightLeg
      RightLeg RightFoot
      RightFoot RightToeBase
   end

# File created by Blade
# Date/Time:  Tue Jan 27 19:14:06 2015
# Frame Rate: 120.000 fps
#------------------------------------------------------
:FULLY-SPECIFIED
:DEGREES
1690
root 4.151651 32.426969 0.561295 -3.835698 15.495741 1.792493
Spine -1.927333 13.238822 -4.098714
Head 9.506534 -24.747948 -3.508855
LeftShoulder -6.229341 -8.604603 22.392190
LeftArm -5.342917 36.149045 -102.869608
LeftForeArm 4.137066 -0.000000 10.401567
LeftHand 9.893085 -0.000000 -6.459628
LeftHandThumb1 -26.253704 0.000000 33.147579
RightShoulder -10.974742 19.044705 -59.085627
RightArm 52.314207 30.267495 47.573705
RightForeArm 26.344126 0.000000 91.034679
RightHand 26.272403 -0.000000 -5.919292
RightHandThumb1 -24.326973 -0.000000 -32.862282
LeftUpLeg 7.700621 -9.516181 -2.041711
LeftLeg 2.781001 -0.000000 -0.000000
LeftFoot -12.694489 6.036238 -21.562345
LeftToeBase 19.104167 -0.000000 -0.000000
RightUpLeg 11.963215 -5.753286 2.316904
RightLeg -1.931735 -0.000000 0.000000
RightFoot -14.856553 -20.960202 17.206539
RightToeBase 11.711904 -0.000000 -0.000000
1691
root 4.154680 32.427301 0.559633 -3.822212 15.529524 1.792743
Spine -1.930132 13.269809 -4.107914
Head 9.447065 -24.758199 -3.526843
LeftShoulder -6.217353 -8.550671 22.382499
LeftArm -5.251924 36.185033 -102.827187
LeftForeArm 4.138138 -0.000000 10.358362
LeftHand 9.896537 0.000000 -6.448750
LeftHandThumb1 -26.253704 0.000000 33.147579
RightShoulder -10.934546 19.158852 -59.073169
RightArm 52.671866 30.998093 49.174597
RightForeArm 26.328465 -0.000000 91.054608
RightHand 26.145500 -0.000000 -5.474732
RightHandThumb1 -24.326973 -0.000000 -32.862282
LeftUpLeg 7.681904 -9.520340 -2.043137
LeftLeg 2.776818 -0.000000 -0.000000
LeftFoot -12.673597 6.016080 -21.564436
LeftToeBase 19.087725 -0.000000 -0.000000
RightUpLeg 11.954586 -5.747292 2.318912
RightLeg -1.938948 -0.000000 0.000000
RightFoot -14.870023 -21.008841 17.213134
RightToeBase 11.765496 -0.000000 -0.000000
1692
root 4.157067 32.427350 0.559297 -3.805711 15.575216 1.790898
Spine -1.943123 13.297577 -4.131509
Head 9.397022 -24.778203 -3.483982
LeftShoulder -6.201933 -8.494381 22.394019
LeftArm -5.162218 36.238285 -102.798005
LeftForeArm 4.072421 -0.000000 10.318117
LeftHand 9.886703 -0.000000 -6.438850
LeftHandThumb1 -26.253704 0.000000 33.147579
RightShoulder -10.902785 19.298395 -59.039728
RightArm 53.057055 31.734278 50.833455
RightForeArm 26.439652 -0.000000 91.017628
RightHand 26.698240 0.000000 -5.372242
RightHandThumb1 -24.326973 -0.000000 -32.862282
LeftUpLeg 7.670754 -9.539463 -2.040224
LeftLeg 2.744961 -0.000000 -0.000000
LeftFoot -12.668212 6.033901 -21.420964
LeftToeBase 19.238056 -0.000000 -0.000000
RightUpLeg 11.947836 -5.794368 2.314158
RightLeg -1.950730 -0.000000 0.000000
RightFoot -14.865566 -20.998715 17.230378
RightToeBase 11.753426 -0.000000 -0.000000
1693
root 4.139733 32.424748 0.573280 -3.876338 15.564390 1.668807
Spine -1.913681 13.381754 -4.078247
Head 9.344257 -24.789292 -3.374154
LeftShoulder -6.178021 -8.476017 22.483068
LeftArm -5.113750 36.308808 -102.807137
LeftForeArm 4.012031 -0.000000 10.268529
LeftHand 9.924686 -0.000000 -6.414048
LeftHandThumb1 -26.253704 0.000000 33.147579
RightShoulder -10.889453 19.381607 -58.999301
RightArm 53.524569 32.529619 52.680469
RightForeArm 26.261618 0.000000 91.063813
RightHand 26.465520 -0.000000 -5.218072
RightHandThumb1 -24.326973 -0.000000 -32.862282
LeftUpLeg 7.778287 -11.161546 -2.157769
LeftLeg 2.808006 -0.000000 -0.000000
LeftFoot -13.424085 7.345980 -22.175967
LeftToeBase 19.068056 -0.000000 -0.000000
RightUpLeg 12.009247 -5.721126 2.487403
RightLeg -1.977057 -0.000000 0.000000
RightFoot -14.815540 -21.146656 17.175083
RightToeBase 11.825764 -0.000000 -0.000000
1694
root 4.141265 32.425659 0.571808 -3.845535 15.613451 1.666613
Spine -1.935828 13.429658 -4.109851
Head 9.283991 -24.858429 -3.338984
LeftShoulder -6.145150 -8.479754 22.492474
LeftArm -5.075105 36.364176 -102.802585
LeftForeArm 4.018998 0.000000 10.218849
LeftHand 9.940229 -0.000000 -6.409593
LeftHandThumb1 -26.253704 0.000000 33.147579
RightShoulder -10.897666 19.434224 -59.010116
RightArm 54.059910 33.342596 54.630269
RightForeArm 26.243239 -0.000000 91.102073
RightHand 26.352326 -0.000000 -5.331875
RightHandThumb1 -24.326973 -0.000000 -32.862282
LeftUpLeg 7.730602 -11.134938 -2.146154
LeftLeg 2.819914 -0.000000 -0.000000
LeftFoot -13.392365 7.301728 -22.133082
LeftToeBase 19.064784 -0.000000 -0.000000
RightUpLeg 11.988670 -5.726031 2.494772
RightLeg -1.994377 -0.000000 0.000000
RightFoot -14.807236 -21.190132 17.198034
RightToeBase 11.777040 -0.000000 -0.000000
1695
root 4.144368 32.425939 0.571799 -3.833555 15.659598 1.666810
Spine -1.952221 13.442287 -4.124695
Head 9.265205 -24.891838 -3.347123
LeftShoulder -6.117418 -8.421859 22.484312
LeftArm -4.993998 36.420811 -102.768938
LeftForeArm 3.965739 -0.000000 10.171493
LeftHand 9.934427 -0.000000 -6.368879
LeftHandThumb1 -26.253704 0.000000 33.147579
RightShoulder -10.854523 19.536330 -58.999244
RightArm 54.629333 34.151090 56.625923
RightForeArm 26.490824 -0.000000 91.153701
RightHand 26.381804 -0.000000 -5.406166
RightHandThumb1 -24.326973 -0.000000 -32.862282
LeftUpLeg 7.726007 -11.118033 -2.142634
LeftLeg 2.789551 -0.000000 -0.000000
LeftFoot -13.351037 7.260912 -22.096788
LeftToeBase 19.068814 -0.000000 -0.000000
RightUpLeg 11.990833 -5.756702 2.488372
RightLeg -2.010564 -0.000000 0.000000
RightFoot -14.801771 -21.201919 17.205902
RightToeBase 11.778710 -0.000000 -0.000000
1696
root 4.146016 32.426968 0.570303 -3.802610 15.700811 1.661183
Spine -1.979349 13.468069 -4.145903
Head 9.227744 -24.916890 -3.343245
LeftShoulder -6.103515 -8.406829 22.484836
LeftArm -4.945793 36.445944 -102.750820
LeftForeArm 3.942379 -0.000000 10.123077
LeftHand 9.972038 -0.000000 -6.455921
LeftHandThumb1 -26.253704 0.000000 33.147579
RightShoulder -10.842280 19.646969 -58.988064
RightArm 55.267895 34.983017 58.721094
RightForeArm 26.635360 -0.000000 91.180049
RightHand 26.420480 0.000000 -5.909666
RightHandThumb1 -24.326973 -0.000000 -32.862282
LeftUpLeg 7.700225 -11.068715 -2.120653
LeftLeg 2.742715 -0.000000 -0.000000
LeftFoot -13.303419 7.227337 -21.954065
LeftToeBase 19.312285 -0.000000 -0.000000
RightUpLeg 11.963670 -5.778210 2.492818
RightLeg -2.014811 -0.000000 0.000000
RightFoot -14.814644 -21.208839 17.233266
RightToeBase 11.837929 -0.000000 -0.000000
1697
root 4.189249 32.432153 0.581000 -3.878099 15.642230 1.837291
Spine -1.894184 13.579289 -4.212372
Head 9.303837 -24.895052 -3.500256
LeftShoulder -6.118893 -8.351559 22.392892
LeftArm -4.926380 36.474930 -102.760810
LeftForeArm 3.954586 -0.000000 10.049996
LeftHand 9.945619 -0.000000 -6.412590
LeftHandThumb1 -26.253704 0.000000 33.147579
RightShoulder -10.733514 19.854676 -59.009416
RightArm 55.822685 35.829757 60.757241
RightForeArm 27.027442 -0.000000 91.250717
RightHand 26.462475 -0.000000 -6.289362
RightHandThumb1 -24.326973 -0.000000 -32.862282
LeftUpLeg 7.796900 -9.632838 -2.158779
LeftLeg 2.772548 -0.000000 -0.000000
LeftFoot -12.640992 6.022492 -21.567907
LeftToeBase 19.155257 -0.000000 -0.000000
RightUpLeg 12.157234 -5.869160 2.194466
RightLeg -2.069286 -0.000000 0.000000
RightFoot -14.835207 -20.951676 17.301973
RightToeBase 11.796417 -0.000000 -0.000000
1698
root 4.196267 32.432857 0.584385 -3.889937 15.651288 1.838189
Spine -1.894891 13.617828 -4.209620
Head 9.323836 -24.888745 -3.527034
LeftShoulder -6.103935 -8.343101 22.377322
LeftArm -4.910518 36.499967 -102.763734
LeftForeArm 3.920159 0.000000 9.990009
LeftHand 9.984228 -0.000000 -6.430669
LeftHandThumb1 -26.253704 0.000000 33.147579
RightShoulder -10.641561 20.077545 -58.981895
RightArm 56.501688 36.700063 62.855758
RightForeArm 27.514528 -0.000000 91.237141
RightHand 26.751254 0.000000 -6.951648
RightHandThumb1 -24.326973 -0.000000 -32.862282
LeftUpLeg 7.816689 -9.569676 -2.159663
LeftLeg 2.764677 -0.000000 -0.000000
LeftFoot -12.638065 5.995129 -21.395527
LeftToeBase 19.389059 -0.000000 -0.000000
RightUpLeg 12.190634 -5.860524 2.182079
RightLeg -2.093502 -0.000000 0.000000
RightFoot -14.814319 -20.970757 17.308164
RightToeBase 11.747623 -0.000000 -0.000000
1699
root 4.190992 32.433784 0.574620 -3.798585 15.746550 1.821151
Spine -1.987498 13.571608 -4.254633
Head 9.333972 -24.914808 -3.513671
LeftShoulder -6.071395 -8.378720 22.379233
LeftArm -4.914732 36.488923 -102.760403
LeftForeArm 3.899458 0.000000 9.929155
LeftHand 10.037638 -0.000000 -6.385479
LeftHandThumb1 -26.253704 0.000000 33.147579
RightShoulder -10.575105 20.314322 -58.933099
RightArm 57.250854 37.576104 65.134908
RightForeArm 27.883838 -0.000000 91.334064
RightHand 26.873323 -0.000000 -7.186008
RightHandThumb1 -24.326973 -0.000000 -32.862282
LeftUpLeg 7.711386 -9.624681 -2.120860
LeftLeg 2.716947 -0.000000 -0.000000
LeftFoot -12.563447 5.937173 -21.531240
LeftToeBase 19.188862 -0.000000 -0.000000
RightUpLeg 12.072540 -5.885128 2.223283
RightLeg -2.072387 -0.000000 0.000000
RightFoot -14.836150 -21.044525 17.336408
RightToeBase 11.799282 -0.000000 -0.000000
